<mxfile host="app.diagrams.net" modified="2023-04-14T06:44:47.644Z" agent="Mozilla/5.0 (Macintosh; Intel Mac OS X 10_15_7) AppleWebKit/537.36 (KHTML, like Gecko) Chrome/112.0.0.0 Safari/537.36" etag="xkhGDsL_g6Hk_p_V_M7O" version="21.1.7" type="device">
  <diagram name="第 1 页" id="tBmPIZ2vZAZNE_NMPpGJ">
    <mxGraphModel dx="1434" dy="796" grid="1" gridSize="10" guides="1" tooltips="1" connect="1" arrows="1" fold="1" page="1" pageScale="1" pageWidth="827" pageHeight="1169" math="0" shadow="0">
      <root>
        <mxCell id="0" />
        <mxCell id="1" parent="0" />
        <mxCell id="3JgRLcPMAhVuBqiTOAQh-1" value="pavaro 进程" style="rounded=0;whiteSpace=wrap;html=1;" vertex="1" parent="1">
          <mxGeometry x="80" y="330" width="120" height="60" as="geometry" />
        </mxCell>
        <mxCell id="3JgRLcPMAhVuBqiTOAQh-2" value="Linux 定时器" style="ellipse;whiteSpace=wrap;html=1;aspect=fixed;" vertex="1" parent="1">
          <mxGeometry x="334" y="140" width="80" height="80" as="geometry" />
        </mxCell>
        <mxCell id="3JgRLcPMAhVuBqiTOAQh-3" value="共享内存 /&lt;br&gt;文件映射mmap" style="rounded=1;whiteSpace=wrap;html=1;" vertex="1" parent="1">
          <mxGeometry x="390" y="290" width="120" height="60" as="geometry" />
        </mxCell>
        <mxCell id="3JgRLcPMAhVuBqiTOAQh-14" style="edgeStyle=orthogonalEdgeStyle;rounded=0;orthogonalLoop=1;jettySize=auto;html=1;exitX=1;exitY=0.5;exitDx=0;exitDy=0;entryX=0;entryY=0.5;entryDx=0;entryDy=0;" edge="1" parent="1" source="3JgRLcPMAhVuBqiTOAQh-5" target="3JgRLcPMAhVuBqiTOAQh-13">
          <mxGeometry relative="1" as="geometry" />
        </mxCell>
        <mxCell id="3JgRLcPMAhVuBqiTOAQh-5" value="旁路进程" style="rounded=0;whiteSpace=wrap;html=1;" vertex="1" parent="1">
          <mxGeometry x="580" y="290" width="100" height="60" as="geometry" />
        </mxCell>
        <mxCell id="3JgRLcPMAhVuBqiTOAQh-6" value="hook pthread_create" style="rounded=0;whiteSpace=wrap;html=1;" vertex="1" parent="1">
          <mxGeometry x="80" y="250" width="120" height="60" as="geometry" />
        </mxCell>
        <mxCell id="3JgRLcPMAhVuBqiTOAQh-8" value="" style="swimlane;startSize=0;dashed=1;dashPattern=8 8;" vertex="1" parent="1">
          <mxGeometry x="40" y="230" width="190" height="180" as="geometry" />
        </mxCell>
        <mxCell id="3JgRLcPMAhVuBqiTOAQh-9" value="" style="endArrow=classic;html=1;rounded=0;exitX=1;exitY=0.5;exitDx=0;exitDy=0;entryX=0;entryY=0.5;entryDx=0;entryDy=0;" edge="1" parent="1" source="3JgRLcPMAhVuBqiTOAQh-8" target="3JgRLcPMAhVuBqiTOAQh-3">
          <mxGeometry width="50" height="50" relative="1" as="geometry">
            <mxPoint x="390" y="430" as="sourcePoint" />
            <mxPoint x="440" y="380" as="targetPoint" />
          </mxGeometry>
        </mxCell>
        <mxCell id="3JgRLcPMAhVuBqiTOAQh-10" value="" style="endArrow=classic;html=1;rounded=0;entryX=1;entryY=0.25;entryDx=0;entryDy=0;exitX=0;exitY=1;exitDx=0;exitDy=0;" edge="1" parent="1" source="3JgRLcPMAhVuBqiTOAQh-2" target="3JgRLcPMAhVuBqiTOAQh-8">
          <mxGeometry width="50" height="50" relative="1" as="geometry">
            <mxPoint x="390" y="430" as="sourcePoint" />
            <mxPoint x="440" y="380" as="targetPoint" />
          </mxGeometry>
        </mxCell>
        <mxCell id="3JgRLcPMAhVuBqiTOAQh-11" value="" style="endArrow=classic;html=1;rounded=0;exitX=1;exitY=0.5;exitDx=0;exitDy=0;entryX=0;entryY=0.5;entryDx=0;entryDy=0;" edge="1" parent="1" source="3JgRLcPMAhVuBqiTOAQh-3" target="3JgRLcPMAhVuBqiTOAQh-5">
          <mxGeometry width="50" height="50" relative="1" as="geometry">
            <mxPoint x="550" y="450" as="sourcePoint" />
            <mxPoint x="600" y="400" as="targetPoint" />
          </mxGeometry>
        </mxCell>
        <mxCell id="3JgRLcPMAhVuBqiTOAQh-13" value="处理、展示" style="rounded=0;whiteSpace=wrap;html=1;" vertex="1" parent="1">
          <mxGeometry x="750" y="290" width="90" height="60" as="geometry" />
        </mxCell>
      </root>
    </mxGraphModel>
  </diagram>
</mxfile>
